<svg xmlns="http://www.w3.org/2000/svg" width="1024" height="500" viewBox="0 0 1024 500" role="img" aria-labelledby="title desc">
  <title id="title">Omar AI feature graphic source</title>
  <desc id="desc">Omar AI branding with an assistant orbit and the phrase Your AI for life and business.</desc>
  <defs>
    <linearGradient id="bg" x1="87" y1="24" x2="933" y2="486" gradientUnits="userSpaceOnUse">
      <stop stop-color="#07111F"/>
      <stop offset="0.52" stop-color="#35228D"/>
      <stop offset="1" stop-color="#7356E6"/>
    </linearGradient>
    <radialGradient id="glow" cx="0" cy="0" r="1" gradientTransform="translate(734 239) rotate(180) scale(316 272)" gradientUnits="userSpaceOnUse">
      <stop stop-color="#426EAE"/>
      <stop offset="1" stop-color="#4F38B2"/>
    </radialGradient>
  </defs>
  <rect width="1024" height="500" fill="url(#bg)"/>
  <ellipse cx="758" cy="245" rx="300" ry="250" fill="url(#glow)"/>
  <circle cx="817" cy="250" r="154" fill="none" stroke="#5642AD" stroke-width="2"/>
  <circle cx="817" cy="250" r="112" fill="none" stroke="#654FC0" stroke-width="2"/>
  <path d="M817 130c-66 0-120 54-120 120s54 120 120 120c36 0 69-16 92-42l-41-35c-13 15-31 23-51 23-37 0-66-29-66-66s29-66 66-66c36 0 65 28 66 64h54c-1-65-54-118-120-118Z" fill="#F7F8FC"/>
  <path d="M878 170c32 19 54 53 58 91" fill="none" stroke="#56D4F2" stroke-linecap="round" stroke-width="15"/>
  <circle cx="937" cy="275" r="14" fill="#56D4F2"/>
  <path d="m937 238 7 21 21 7-21 7-7 21-7-21-21-7 21-7Z" fill="#FFFFFF"/>
  <circle cx="164" cy="93" r="82" fill="#2F237A"/>
  <text x="142" y="216" fill="#FFFFFF" font-family="Inter, Arial, sans-serif" font-size="66" font-weight="750" letter-spacing="-2">Omar AI</text>
  <text x="145" y="277" fill="#DDE7FF" font-family="Inter, Arial, sans-serif" font-size="28" font-weight="500">Your AI for life and business</text>
  <rect x="145" y="313" width="116" height="5" rx="2.5" fill="#56D4F2"/>
</svg>
